<svg width="1092" height="31" viewBox="0 0 1092 31" fill="none" xmlns="http://www.w3.org/2000/svg">
<path d="M787.688 19V17.656H789.746V10.124H787.688V8.78H793.344V10.124H791.286V17.656H793.344V19H787.688ZM795.887 19V11.3H797.385V12.77H797.749L797.385 13.12C797.385 12.504 797.567 12.0233 797.931 11.678C798.295 11.3327 798.799 11.16 799.443 11.16C800.208 11.16 800.82 11.4073 801.277 11.902C801.734 12.3873 801.963 13.0453 801.963 13.876V19H800.451V14.044C800.451 13.54 800.316 13.1527 800.045 12.882C799.774 12.6113 799.406 12.476 798.939 12.476C798.463 12.476 798.085 12.6207 797.805 12.91C797.534 13.19 797.399 13.6007 797.399 14.142V19H795.887ZM804.239 19V17.628H806.941V12.672H804.589V11.3H808.411V17.628H810.889V19H804.239ZM806.591 9.97L808.075 8.01H809.699L808.117 9.97H806.591ZM815.756 19.14C815.121 19.14 814.561 19.0233 814.076 18.79C813.6 18.5473 813.231 18.202 812.97 17.754C812.718 17.2967 812.592 16.7647 812.592 16.158V14.142C812.592 13.526 812.718 12.994 812.97 12.546C813.231 12.098 813.6 11.7573 814.076 11.524C814.561 11.2813 815.121 11.16 815.756 11.16C816.68 11.16 817.422 11.4027 817.982 11.888C818.542 12.3733 818.836 13.036 818.864 13.876H817.352C817.324 13.4373 817.17 13.0967 816.89 12.854C816.61 12.6113 816.232 12.49 815.756 12.49C815.243 12.49 814.837 12.6347 814.538 12.924C814.239 13.204 814.09 13.6053 814.09 14.128V16.158C814.09 16.6807 814.239 17.0867 814.538 17.376C814.837 17.6653 815.243 17.81 815.756 17.81C816.232 17.81 816.61 17.6887 816.89 17.446C817.17 17.2033 817.324 16.8627 817.352 16.424H818.864C818.836 17.264 818.542 17.9267 817.982 18.412C817.422 18.8973 816.68 19.14 815.756 19.14ZM821.029 19V17.628H823.731V12.672H821.379V11.3H825.201V17.628H827.679V19H821.029ZM824.319 9.97C823.992 9.97 823.731 9.886 823.535 9.718C823.339 9.54067 823.241 9.30733 823.241 9.018C823.241 8.71933 823.339 8.486 823.535 8.318C823.731 8.14067 823.992 8.052 824.319 8.052C824.645 8.052 824.907 8.14067 825.103 8.318C825.299 8.486 825.397 8.71933 825.397 9.018C825.397 9.30733 825.299 9.54067 825.103 9.718C824.907 9.886 824.645 9.97 824.319 9.97ZM832.489 19.126C831.854 19.126 831.304 19.0047 830.837 18.762C830.37 18.5193 830.011 18.174 829.759 17.726C829.507 17.278 829.381 16.7507 829.381 16.144V14.156C829.381 13.54 829.507 13.0127 829.759 12.574C830.011 12.126 830.37 11.7807 830.837 11.538C831.304 11.2953 831.854 11.174 832.489 11.174C833.124 11.174 833.674 11.2953 834.141 11.538C834.608 11.7807 834.967 12.126 835.219 12.574C835.471 13.0127 835.597 13.54 835.597 14.156V16.144C835.597 16.7507 835.471 17.278 835.219 17.726C834.967 18.174 834.608 18.5193 834.141 18.762C833.674 19.0047 833.124 19.126 832.489 19.126ZM832.489 17.796C833.002 17.796 833.399 17.656 833.679 17.376C833.959 17.0867 834.099 16.676 834.099 16.144V14.156C834.099 13.6147 833.959 13.204 833.679 12.924C833.399 12.644 833.002 12.504 832.489 12.504C831.985 12.504 831.588 12.644 831.299 12.924C831.019 13.204 830.879 13.6147 830.879 14.156V16.144C830.879 16.676 831.019 17.0867 831.299 17.376C831.588 17.656 831.985 17.796 832.489 17.796Z" fill="white"/>
<path d="M905.664 19.14C904.973 19.14 904.381 19.028 903.886 18.804C903.391 18.5707 903.009 18.244 902.738 17.824C902.467 17.3947 902.332 16.886 902.332 16.298H903.83C903.83 16.7647 903.993 17.1333 904.32 17.404C904.647 17.6653 905.099 17.796 905.678 17.796C906.219 17.796 906.644 17.6653 906.952 17.404C907.26 17.1427 907.414 16.7833 907.414 16.326C907.414 15.9433 907.307 15.612 907.092 15.332C906.887 15.052 906.588 14.8607 906.196 14.758L904.908 14.38C904.161 14.1653 903.583 13.8013 903.172 13.288C902.771 12.7653 902.57 12.1447 902.57 11.426C902.57 10.866 902.696 10.376 902.948 9.956C903.2 9.536 903.559 9.20933 904.026 8.976C904.493 8.74267 905.043 8.626 905.678 8.626C906.611 8.626 907.358 8.878 907.918 9.382C908.487 9.886 908.777 10.5627 908.786 11.412H907.274C907.274 10.964 907.129 10.614 906.84 10.362C906.56 10.1007 906.163 9.97 905.65 9.97C905.155 9.97 904.768 10.0913 904.488 10.334C904.208 10.5673 904.068 10.8987 904.068 11.328C904.068 11.7107 904.171 12.042 904.376 12.322C904.591 12.602 904.894 12.798 905.286 12.91L906.588 13.302C907.335 13.5073 907.909 13.8713 908.31 14.394C908.711 14.9167 908.912 15.542 908.912 16.27C908.912 16.8393 908.777 17.3433 908.506 17.782C908.235 18.2113 907.857 18.5473 907.372 18.79C906.887 19.0233 906.317 19.14 905.664 19.14ZM914.016 19.14C913.391 19.14 912.84 19.0187 912.364 18.776C911.898 18.524 911.538 18.174 911.286 17.726C911.034 17.278 910.908 16.7553 910.908 16.158V14.142C910.908 13.5353 911.034 13.0127 911.286 12.574C911.538 12.126 911.898 11.7807 912.364 11.538C912.84 11.286 913.391 11.16 914.016 11.16C914.651 11.16 915.202 11.286 915.668 11.538C916.135 11.7807 916.494 12.126 916.746 12.574C916.998 13.0127 917.124 13.5353 917.124 14.142V15.514H912.364V16.158C912.364 16.7273 912.504 17.1613 912.784 17.46C913.074 17.7587 913.489 17.908 914.03 17.908C914.469 17.908 914.824 17.8333 915.094 17.684C915.365 17.5253 915.533 17.2967 915.598 16.998H917.096C916.984 17.6513 916.648 18.174 916.088 18.566C915.528 18.9487 914.838 19.14 914.016 19.14ZM915.668 14.604V14.128C915.668 13.568 915.528 13.134 915.248 12.826C914.968 12.518 914.558 12.364 914.016 12.364C913.484 12.364 913.074 12.518 912.784 12.826C912.504 13.134 912.364 13.5727 912.364 14.142V14.492L915.78 14.478L915.668 14.604ZM919.639 19V11.3H921.095V12.77H921.459L920.997 13.68C920.997 12.8493 921.179 12.224 921.543 11.804C921.907 11.3747 922.448 11.16 923.167 11.16C923.988 11.16 924.637 11.4167 925.113 11.93C925.598 12.434 925.841 13.1293 925.841 14.016V14.534H924.287V14.142C924.287 13.5913 924.147 13.1713 923.867 12.882C923.596 12.5833 923.214 12.434 922.719 12.434C922.224 12.434 921.837 12.5833 921.557 12.882C921.286 13.1807 921.151 13.6007 921.151 14.142V19H919.639ZM929.811 19L927.263 11.3H928.803L930.385 16.228C930.488 16.5173 930.577 16.8113 930.651 17.11C930.735 17.3993 930.796 17.628 930.833 17.796C930.88 17.628 930.941 17.3993 931.015 17.11C931.099 16.8113 931.183 16.5173 931.267 16.228L932.821 11.3H934.347L931.799 19H929.811ZM936.134 19V17.628H938.836V12.672H936.484V11.3H940.306V17.628H942.784V19H936.134ZM939.424 9.97C939.097 9.97 938.836 9.886 938.64 9.718C938.444 9.54067 938.346 9.30733 938.346 9.018C938.346 8.71933 938.444 8.486 938.64 8.318C938.836 8.14067 939.097 8.052 939.424 8.052C939.751 8.052 940.012 8.14067 940.208 8.318C940.404 8.486 940.502 8.71933 940.502 9.018C940.502 9.30733 940.404 9.54067 940.208 9.718C940.012 9.886 939.751 9.97 939.424 9.97ZM946.251 21.94V21.1H947.273C947.487 21.1 947.66 21.044 947.791 20.932C947.921 20.8293 947.987 20.7173 947.987 20.596C947.987 20.4187 947.851 20.2693 947.581 20.148C947.319 20.0267 946.951 19.966 946.475 19.966L946.965 18.678H947.819L947.539 19.504C947.8 19.532 948.066 19.5927 948.337 19.686C948.607 19.7793 948.836 19.91 949.023 20.078C949.219 20.2553 949.317 20.4747 949.317 20.736C949.317 21.0627 949.153 21.3427 948.827 21.576C948.5 21.8187 948.075 21.94 947.553 21.94H946.251ZM947.651 19.14C947.016 19.14 946.456 19.0233 945.971 18.79C945.495 18.5473 945.126 18.202 944.865 17.754C944.613 17.2967 944.487 16.7647 944.487 16.158V14.142C944.487 13.526 944.613 12.994 944.865 12.546C945.126 12.098 945.495 11.7573 945.971 11.524C946.456 11.2813 947.016 11.16 947.651 11.16C948.575 11.16 949.317 11.4027 949.877 11.888C950.437 12.3733 950.731 13.036 950.759 13.876H949.247C949.219 13.4373 949.065 13.0967 948.785 12.854C948.505 12.6113 948.127 12.49 947.651 12.49C947.137 12.49 946.731 12.6347 946.433 12.924C946.134 13.204 945.985 13.6053 945.985 14.128V16.158C945.985 16.6807 946.134 17.0867 946.433 17.376C946.731 17.6653 947.137 17.81 947.651 17.81C948.127 17.81 948.505 17.6887 948.785 17.446C949.065 17.2033 949.219 16.8627 949.247 16.424H950.759C950.731 17.264 950.437 17.9267 949.877 18.412C949.317 18.8973 948.575 19.14 947.651 19.14ZM955.989 19.126C955.354 19.126 954.804 19.0047 954.337 18.762C953.87 18.5193 953.511 18.174 953.259 17.726C953.007 17.278 952.881 16.7507 952.881 16.144V14.156C952.881 13.54 953.007 13.0127 953.259 12.574C953.511 12.126 953.87 11.7807 954.337 11.538C954.804 11.2953 955.354 11.174 955.989 11.174C956.624 11.174 957.174 11.2953 957.641 11.538C958.108 11.7807 958.467 12.126 958.719 12.574C958.971 13.0127 959.097 13.54 959.097 14.156V16.144C959.097 16.7507 958.971 17.278 958.719 17.726C958.467 18.174 958.108 18.5193 957.641 18.762C957.174 19.0047 956.624 19.126 955.989 19.126ZM955.989 17.796C956.502 17.796 956.899 17.656 957.179 17.376C957.459 17.0867 957.599 16.676 957.599 16.144V14.156C957.599 13.6147 957.459 13.204 957.179 12.924C956.899 12.644 956.502 12.504 955.989 12.504C955.485 12.504 955.088 12.644 954.799 12.924C954.519 13.204 954.379 13.6147 954.379 14.156V16.144C954.379 16.676 954.519 17.0867 954.799 17.376C955.088 17.656 955.485 17.796 955.989 17.796ZM964.118 19.126C963.567 19.126 963.082 19.0373 962.662 18.86C962.251 18.6827 961.924 18.44 961.682 18.132C961.448 17.8147 961.313 17.4413 961.276 17.012H962.788C962.825 17.264 962.96 17.4693 963.194 17.628C963.427 17.7773 963.735 17.852 964.118 17.852H964.72C965.177 17.852 965.522 17.7587 965.756 17.572C965.989 17.3853 966.106 17.138 966.106 16.83C966.106 16.5313 965.998 16.298 965.784 16.13C965.578 15.9527 965.27 15.836 964.86 15.78L963.866 15.626C963.044 15.4953 962.438 15.262 962.046 14.926C961.663 14.5807 961.472 14.072 961.472 13.4C961.472 12.6907 961.7 12.1447 962.158 11.762C962.624 11.37 963.31 11.174 964.216 11.174H964.748C965.55 11.174 966.19 11.3607 966.666 11.734C967.151 12.098 967.426 12.588 967.492 13.204H965.98C965.942 12.98 965.816 12.798 965.602 12.658C965.396 12.518 965.112 12.448 964.748 12.448H964.216C963.777 12.448 963.455 12.532 963.25 12.7C963.054 12.8587 962.956 13.0967 962.956 13.414C962.956 13.694 963.044 13.904 963.222 14.044C963.399 14.184 963.674 14.282 964.048 14.338L965.07 14.506C965.938 14.6273 966.572 14.87 966.974 15.234C967.384 15.5887 967.59 16.1067 967.59 16.788C967.59 17.5253 967.347 18.0993 966.862 18.51C966.386 18.9207 965.672 19.126 964.72 19.126H964.118Z" fill="white"/>
<path d="M1037.38 19.14C1036.74 19.14 1036.19 19.0233 1035.71 18.79C1035.24 18.5473 1034.88 18.202 1034.62 17.754C1034.37 17.2967 1034.24 16.7647 1034.24 16.158V11.622C1034.24 11.006 1034.37 10.474 1034.62 10.026C1034.88 9.578 1035.24 9.23733 1035.71 9.004C1036.19 8.76133 1036.74 8.64 1037.38 8.64C1038.01 8.64 1038.56 8.76133 1039.03 9.004C1039.49 9.24667 1039.85 9.592 1040.11 10.04C1040.37 10.4787 1040.5 11.006 1040.5 11.622H1038.99C1038.99 11.09 1038.85 10.684 1038.57 10.404C1038.29 10.124 1037.89 9.984 1037.38 9.984C1036.86 9.984 1036.46 10.124 1036.17 10.404C1035.89 10.684 1035.75 11.0853 1035.75 11.608V16.158C1035.75 16.6807 1035.89 17.0867 1036.17 17.376C1036.46 17.656 1036.86 17.796 1037.38 17.796C1037.89 17.796 1038.29 17.656 1038.57 17.376C1038.85 17.0867 1038.99 16.6807 1038.99 16.158H1040.5C1040.5 16.7647 1040.37 17.292 1040.11 17.74C1039.85 18.188 1039.49 18.5333 1039.03 18.776C1038.56 19.0187 1038.01 19.14 1037.38 19.14ZM1045.71 19.126C1045.08 19.126 1044.53 19.0047 1044.06 18.762C1043.6 18.5193 1043.24 18.174 1042.98 17.726C1042.73 17.278 1042.61 16.7507 1042.61 16.144V14.156C1042.61 13.54 1042.73 13.0127 1042.98 12.574C1043.24 12.126 1043.6 11.7807 1044.06 11.538C1044.53 11.2953 1045.08 11.174 1045.71 11.174C1046.35 11.174 1046.9 11.2953 1047.37 11.538C1047.83 11.7807 1048.19 12.126 1048.44 12.574C1048.7 13.0127 1048.82 13.54 1048.82 14.156V16.144C1048.82 16.7507 1048.7 17.278 1048.44 17.726C1048.19 18.174 1047.83 18.5193 1047.37 18.762C1046.9 19.0047 1046.35 19.126 1045.71 19.126ZM1045.71 17.796C1046.23 17.796 1046.62 17.656 1046.9 17.376C1047.18 17.0867 1047.32 16.676 1047.32 16.144V14.156C1047.32 13.6147 1047.18 13.204 1046.9 12.924C1046.62 12.644 1046.23 12.504 1045.71 12.504C1045.21 12.504 1044.81 12.644 1044.52 12.924C1044.24 13.204 1044.1 13.6147 1044.1 14.156V16.144C1044.1 16.676 1044.24 17.0867 1044.52 17.376C1044.81 17.656 1045.21 17.796 1045.71 17.796ZM1051.08 19V11.3H1052.58V12.77H1052.95L1052.58 13.12C1052.58 12.504 1052.76 12.0233 1053.13 11.678C1053.49 11.3327 1054 11.16 1054.64 11.16C1055.41 11.16 1056.02 11.4073 1056.47 11.902C1056.93 12.3873 1057.16 13.0453 1057.16 13.876V19H1055.65V14.044C1055.65 13.54 1055.51 13.1527 1055.24 12.882C1054.97 12.6113 1054.6 12.476 1054.14 12.476C1053.66 12.476 1053.28 12.6207 1053 12.91C1052.73 13.19 1052.6 13.6007 1052.6 14.142V19H1051.08ZM1063.34 19C1062.64 19 1062.1 18.8087 1061.7 18.426C1061.31 18.0433 1061.12 17.5113 1061.12 16.83V12.672H1058.99V11.3H1061.12V9.13H1062.63V11.3H1065.64V12.672H1062.63V16.83C1062.63 17.362 1062.89 17.628 1063.4 17.628H1065.5V19H1063.34ZM1070.13 19.14C1069.32 19.14 1068.69 18.9347 1068.22 18.524C1067.77 18.104 1067.54 17.5347 1067.54 16.816C1067.54 16.088 1067.78 15.5187 1068.27 15.108C1068.76 14.688 1069.44 14.478 1070.3 14.478H1072.44V13.764C1072.44 13.344 1072.31 13.0173 1072.05 12.784C1071.78 12.5507 1071.42 12.434 1070.94 12.434C1070.52 12.434 1070.17 12.5273 1069.89 12.714C1069.61 12.8913 1069.45 13.1293 1069.4 13.428H1067.92C1068 12.7373 1068.32 12.1867 1068.87 11.776C1069.43 11.3653 1070.13 11.16 1070.98 11.16C1071.9 11.16 1072.62 11.3933 1073.15 11.86C1073.68 12.3173 1073.95 12.9427 1073.95 13.736V19H1072.48V17.586H1072.23L1072.48 17.306C1072.48 17.866 1072.26 18.314 1071.84 18.65C1071.41 18.9767 1070.84 19.14 1070.13 19.14ZM1070.58 17.978C1071.12 17.978 1071.56 17.8427 1071.91 17.572C1072.26 17.292 1072.44 16.9373 1072.44 16.508V15.5H1070.32C1069.93 15.5 1069.62 15.6073 1069.39 15.822C1069.16 16.0367 1069.05 16.3307 1069.05 16.704C1069.05 17.096 1069.18 17.4087 1069.46 17.642C1069.73 17.866 1070.1 17.978 1070.58 17.978ZM1080.13 19C1079.43 19 1078.89 18.8087 1078.49 18.426C1078.1 18.0433 1077.91 17.5113 1077.91 16.83V12.672H1075.78V11.3H1077.91V9.13H1079.42V11.3H1082.43V12.672H1079.42V16.83C1079.42 17.362 1079.67 17.628 1080.19 17.628H1082.29V19H1080.13ZM1087.69 19.126C1087.05 19.126 1086.5 19.0047 1086.03 18.762C1085.57 18.5193 1085.21 18.174 1084.96 17.726C1084.7 17.278 1084.58 16.7507 1084.58 16.144V14.156C1084.58 13.54 1084.7 13.0127 1084.96 12.574C1085.21 12.126 1085.57 11.7807 1086.03 11.538C1086.5 11.2953 1087.05 11.174 1087.69 11.174C1088.32 11.174 1088.87 11.2953 1089.34 11.538C1089.8 11.7807 1090.16 12.126 1090.42 12.574C1090.67 13.0127 1090.79 13.54 1090.79 14.156V16.144C1090.79 16.7507 1090.67 17.278 1090.42 17.726C1090.16 18.174 1089.8 18.5193 1089.34 18.762C1088.87 19.0047 1088.32 19.126 1087.69 19.126ZM1087.69 17.796C1088.2 17.796 1088.6 17.656 1088.88 17.376C1089.16 17.0867 1089.3 16.676 1089.3 16.144V14.156C1089.3 13.6147 1089.16 13.204 1088.88 12.924C1088.6 12.644 1088.2 12.504 1087.69 12.504C1087.18 12.504 1086.79 12.644 1086.5 12.924C1086.22 13.204 1086.08 13.6147 1086.08 14.156V16.144C1086.08 16.676 1086.22 17.0867 1086.5 17.376C1086.79 17.656 1087.18 17.796 1087.69 17.796Z" fill="white"/>
<path d="M42.5142 20.24C41.3942 20.24 40.4102 20.032 39.5622 19.616C38.7302 19.184 38.0822 18.584 37.6182 17.816C37.1542 17.032 36.9222 16.112 36.9222 15.056V11.744C36.9222 10.672 37.1542 9.752 37.6182 8.984C38.0822 8.216 38.7302 7.624 39.5622 7.208C40.4102 6.776 41.3942 6.56 42.5142 6.56C44.1782 6.56 45.5062 6.992 46.4982 7.856C47.4902 8.704 48.0102 9.864 48.0582 11.336H45.0582C45.0102 10.648 44.7622 10.12 44.3142 9.752C43.8822 9.368 43.2822 9.176 42.5142 9.176C41.7142 9.176 41.0822 9.4 40.6182 9.848C40.1542 10.28 39.9222 10.904 39.9222 11.72V15.056C39.9222 15.872 40.1542 16.504 40.6182 16.952C41.0822 17.4 41.7142 17.624 42.5142 17.624C43.2822 17.624 43.8822 17.44 44.3142 17.072C44.7622 16.688 45.0102 16.152 45.0582 15.464H48.0582C48.0102 16.936 47.4902 18.104 46.4982 18.968C45.5062 19.816 44.1782 20.24 42.5142 20.24ZM51.5528 20V2.48H54.5528V11.984H56.6408L59.8568 6.8H63.2168L59.2328 13.184L63.2888 20H59.8568L56.6408 14.528H54.5528V20H51.5528ZM71.2474 20.24C70.1274 20.24 69.1514 20.024 68.3194 19.592C67.4874 19.16 66.8394 18.56 66.3754 17.792C65.9274 17.008 65.7034 16.096 65.7034 15.056V11.744C65.7034 10.704 65.9274 9.8 66.3754 9.032C66.8394 8.248 67.4874 7.64 68.3194 7.208C69.1514 6.776 70.1274 6.56 71.2474 6.56C72.3514 6.56 73.3114 6.776 74.1274 7.208C74.9594 7.64 75.5994 8.248 76.0474 9.032C76.5114 9.8 76.7434 10.704 76.7434 11.744V14.12H68.6074V15.056C68.6074 15.984 68.8314 16.688 69.2794 17.168C69.7274 17.632 70.3914 17.864 71.2714 17.864C71.9434 17.864 72.4874 17.752 72.9034 17.528C73.3194 17.288 73.5834 16.944 73.6954 16.496H76.6474C76.4234 17.632 75.8154 18.544 74.8234 19.232C73.8474 19.904 72.6554 20.24 71.2474 20.24ZM73.8394 12.44V11.72C73.8394 10.808 73.6234 10.112 73.1914 9.632C72.7594 9.136 72.1114 8.888 71.2474 8.888C70.3834 8.888 69.7274 9.136 69.2794 9.632C68.8314 10.128 68.6074 10.832 68.6074 11.744V12.248L74.0554 12.2L73.8394 12.44ZM87.0541 20C85.7901 20 84.7981 19.648 84.0781 18.944C83.3741 18.24 83.0221 17.272 83.0221 16.04V9.512H79.4461V6.8H83.0221V3.08H86.0461V6.8H91.1101V9.512H86.0461V16.04C86.0461 16.872 86.4541 17.288 87.2701 17.288H90.8701V20H87.0541ZM100.005 20.24C99.3167 20.24 98.7647 20.04 98.3487 19.64C97.9487 19.24 97.7487 18.696 97.7487 18.008C97.7487 17.32 97.9487 16.776 98.3487 16.376C98.7647 15.96 99.3167 15.752 100.005 15.752C100.693 15.752 101.237 15.96 101.637 16.376C102.053 16.776 102.261 17.32 102.261 18.008C102.261 18.696 102.053 19.24 101.637 19.64C101.237 20.04 100.693 20.24 100.005 20.24ZM113.891 20.216C112.883 20.216 112.003 20.056 111.251 19.736C110.499 19.416 109.907 18.976 109.475 18.416C109.059 17.84 108.835 17.168 108.803 16.4H111.803C111.835 16.816 112.035 17.152 112.403 17.408C112.787 17.664 113.283 17.792 113.891 17.792H114.947C115.683 17.792 116.235 17.648 116.603 17.36C116.971 17.072 117.155 16.68 117.155 16.184C117.155 15.72 116.987 15.36 116.651 15.104C116.331 14.832 115.827 14.656 115.139 14.576L113.507 14.336C112.003 14.128 110.899 13.728 110.195 13.136C109.491 12.544 109.139 11.656 109.139 10.472C109.139 9.24 109.555 8.288 110.387 7.616C111.219 6.928 112.443 6.584 114.059 6.584H114.971C116.443 6.584 117.619 6.912 118.499 7.568C119.379 8.224 119.851 9.104 119.915 10.208H116.915C116.867 9.856 116.667 9.568 116.315 9.344C115.979 9.12 115.531 9.008 114.971 9.008H114.059C113.371 9.008 112.867 9.136 112.547 9.392C112.243 9.632 112.091 9.992 112.091 10.472C112.091 10.92 112.227 11.256 112.499 11.48C112.771 11.688 113.211 11.84 113.819 11.936L115.523 12.176C117.091 12.4 118.243 12.824 118.979 13.448C119.731 14.056 120.107 14.96 120.107 16.16C120.107 17.44 119.667 18.44 118.787 19.16C117.923 19.864 116.643 20.216 114.947 20.216H113.891ZM128.81 20.24C127.69 20.24 126.714 20.024 125.882 19.592C125.05 19.16 124.402 18.56 123.938 17.792C123.49 17.008 123.266 16.096 123.266 15.056V11.744C123.266 10.704 123.49 9.8 123.938 9.032C124.402 8.248 125.05 7.64 125.882 7.208C126.714 6.776 127.69 6.56 128.81 6.56C129.914 6.56 130.874 6.776 131.69 7.208C132.522 7.64 133.162 8.248 133.61 9.032C134.074 9.8 134.306 10.704 134.306 11.744V14.12H126.17V15.056C126.17 15.984 126.394 16.688 126.842 17.168C127.29 17.632 127.954 17.864 128.834 17.864C129.506 17.864 130.05 17.752 130.466 17.528C130.882 17.288 131.146 16.944 131.258 16.496H134.21C133.986 17.632 133.378 18.544 132.386 19.232C131.41 19.904 130.218 20.24 128.81 20.24ZM131.402 12.44V11.72C131.402 10.808 131.186 10.112 130.754 9.632C130.322 9.136 129.674 8.888 128.81 8.888C127.946 8.888 127.29 9.136 126.842 9.632C126.394 10.128 126.17 10.832 126.17 11.744V12.248L131.618 12.2L131.402 12.44ZM143.249 20.24C142.129 20.24 141.145 20.032 140.297 19.616C139.465 19.184 138.817 18.584 138.353 17.816C137.889 17.032 137.657 16.112 137.657 15.056V11.744C137.657 10.672 137.889 9.752 138.353 8.984C138.817 8.216 139.465 7.624 140.297 7.208C141.145 6.776 142.129 6.56 143.249 6.56C144.913 6.56 146.241 6.992 147.233 7.856C148.225 8.704 148.745 9.864 148.793 11.336H145.793C145.745 10.648 145.497 10.12 145.049 9.752C144.617 9.368 144.017 9.176 143.249 9.176C142.449 9.176 141.817 9.4 141.353 9.848C140.889 10.28 140.657 10.904 140.657 11.72V15.056C140.657 15.872 140.889 16.504 141.353 16.952C141.817 17.4 142.449 17.624 143.249 17.624C144.017 17.624 144.617 17.44 145.049 17.072C145.497 16.688 145.745 16.152 145.793 15.464H148.793C148.745 16.936 148.225 18.104 147.233 18.968C146.241 19.816 144.913 20.24 143.249 20.24ZM159.007 20C157.743 20 156.751 19.648 156.031 18.944C155.327 18.24 154.975 17.272 154.975 16.04V9.512H151.399V6.8H154.975V3.08H157.999V6.8H163.063V9.512H157.999V16.04C157.999 16.872 158.407 17.288 159.223 17.288H162.823V20H159.007Z" fill="white"/>
<path d="M26.4611 12.1706C24.1683 12.1706 22.303 10.4165 22.303 8.26037C22.303 6.10427 24.1683 4.35016 26.4611 4.35016C28.7538 4.35016 30.6192 6.10427 30.6192 8.26037C30.6192 10.4165 28.7538 12.1706 26.4611 12.1706ZM26.4611 5.33817C24.7837 5.33817 23.419 6.64905 23.419 8.26037C23.419 9.87168 24.7837 11.1826 26.4611 11.1826C28.1384 11.1826 29.5031 9.87168 29.5031 8.26037C29.5031 6.64905 28.1384 5.33817 26.4611 5.33817Z" fill="#00BFA6"/>
<path d="M26.4703 12.0774C24.1724 12.0774 22.303 10.2656 22.303 8.03865C22.303 5.81173 24.1724 4 26.4703 4C28.7681 4 30.6376 5.81173 30.6376 8.03865C30.6376 10.2656 28.7681 12.0774 26.4703 12.0774ZM26.4703 5.02047C24.7892 5.02047 23.4215 6.37441 23.4215 8.03865C23.4215 9.70289 24.7892 11.0569 26.4703 11.0569C28.1514 11.0569 29.519 9.70289 29.519 8.03865C29.519 6.37441 28.1514 5.02047 26.4703 5.02047Z" fill="#00BFA6"/>
<path d="M30.5177 20H22.6252C21.9292 19.9993 21.2619 19.7468 20.7698 19.2978C20.2776 18.8488 20.0008 18.24 20 17.605V10.5421C20.0005 10.1074 20.1901 9.69061 20.527 9.38321C20.8639 9.07582 21.3207 8.9029 21.7972 8.9024H31.3456C31.8221 8.9029 32.2789 9.07582 32.6159 9.38321C32.9528 9.69061 33.1423 10.1074 33.1429 10.5421V17.605C33.1421 18.24 32.8652 18.8488 32.3731 19.2978C31.881 19.7468 31.2137 19.9993 30.5177 20Z" fill="white"/>
<path d="M28.0657 13.5749C28.0659 13.3254 27.9932 13.0805 27.8551 12.8652C27.7171 12.6499 27.5186 12.4721 27.2802 12.3501C27.0417 12.228 26.7719 12.1662 26.4986 12.1709C26.2252 12.1756 25.9582 12.2467 25.725 12.3769C25.4918 12.5071 25.3008 12.6916 25.1718 12.9115C25.0427 13.1314 24.9803 13.3787 24.9908 13.628C25.0014 13.8772 25.0846 14.1194 25.2318 14.3295C25.3791 14.5397 25.5851 14.7102 25.8286 14.8236V17.0189H27.2268V14.8236C27.4792 14.7062 27.6911 14.5275 27.8392 14.3071C27.9872 14.0868 28.0656 13.8333 28.0657 13.5749Z" fill="white"/>
<path d="M28.0657 13.5749C28.0659 13.3254 27.9932 13.0805 27.8551 12.8652C27.7171 12.6499 27.5186 12.4721 27.2802 12.3501C27.0417 12.228 26.7719 12.1662 26.4986 12.1709C26.2252 12.1756 25.9582 12.2467 25.725 12.3769C25.4918 12.5071 25.3008 12.6916 25.1718 12.9115C25.0427 13.1314 24.9803 13.3787 24.9908 13.628C25.0014 13.8772 25.0846 14.1194 25.2318 14.3295C25.3791 14.5397 25.5851 14.7102 25.8286 14.8236V17.0189H27.2268V14.8236C27.4792 14.7062 27.6911 14.5275 27.8392 14.3071C27.9872 14.0868 28.0656 13.8333 28.0657 13.5749Z" fill="#2F2E41"/>
<path d="M5.65647 20V2.48H11.2005C12.3685 2.48 13.3765 2.696 14.2245 3.128C15.0885 3.56 15.7605 4.168 16.2405 4.952C16.7205 5.72 16.9605 6.632 16.9605 7.688C16.9605 8.84 16.6645 9.856 16.0725 10.736C15.4965 11.616 14.7125 12.24 13.7205 12.608L17.2005 20H13.8405L10.7925 13.04H8.65647V20H5.65647ZM8.65647 10.4H11.2005C12.0485 10.4 12.7125 10.168 13.1925 9.704C13.6725 9.24 13.9125 8.6 13.9125 7.784C13.9125 6.952 13.6725 6.304 13.1925 5.84C12.7125 5.36 12.0485 5.12 11.2005 5.12H8.65647V10.4Z" fill="white"/>
</svg>
